<?xml version="1.0" encoding="utf-8"?>
<!-- Generator: Adobe Illustrator 19.2.1, SVG Export Plug-In . SVG Version: 6.00 Build 0)  -->
<!DOCTYPE svg PUBLIC "-//W3C//DTD SVG 1.1//EN" "http://www.w3.org/Graphics/SVG/1.1/DTD/svg11.dtd">
<svg version="1.1" id="Layer_1" xmlns="http://www.w3.org/2000/svg" xmlns:xlink="http://www.w3.org/1999/xlink" x="0px" y="0px"
	 viewBox="0 0 256 256" style="enable-background:new 0 0 256 256;" xml:space="preserve">
<g>
	<path d="M128,255.7c-70.6,0-128-57.3-128-127.8C0,57.3,57.4,0,128,0s128,57.3,128,127.8S198.6,255.7,128,255.7L128,255.7L128,255.7
		z M235.9,145.3c-3.7-1.2-33.8-10.1-68.1-4.7c14.3,39.2,20.1,71.2,21.2,77.8C213.6,201.9,231.1,175.7,235.9,145.3L235.9,145.3
		L235.9,145.3z M170.7,228.5c-1.6-9.6-8-43-23.3-82.8c-0.2,0.1-0.5,0.2-0.7,0.2c-61.7,21.5-83.8,64.2-85.8,68.2
		c18.5,14.4,41.8,23,67.1,23C143.1,237.2,157.6,234.1,170.7,228.5L170.7,228.5L170.7,228.5z M46.8,201c2.5-4.2,32.5-53.8,88.9-72.1
		c1.4-0.5,2.9-0.9,4.3-1.3c-2.7-6.2-5.7-12.4-8.9-18.5c-54.6,16.3-107.6,15.6-112.4,15.5c0,1.1-0.1,2.2-0.1,3.3
		C18.7,156,29.3,181.6,46.8,201L46.8,201L46.8,201z M21,105.6c4.9,0.1,49.9,0.3,101.1-13.3C104,60.1,84.4,33.1,81.6,29.2
		C50.9,43.6,28.1,71.8,21,105.6L21,105.6L21,105.6z M102.4,21.8c3,4,22.9,31,40.8,63.9c38.9-14.6,55.3-36.6,57.3-39.4
		c-19.3-17.1-44.7-27.5-72.5-27.5C119.2,18.8,110.6,19.9,102.4,21.8L102.4,21.8L102.4,21.8z M212.6,58.9c-2.3,3.1-20.6,26.6-61,43.1
		c2.5,5.2,5,10.5,7.3,15.8c0.8,1.9,1.6,3.8,2.4,5.6c36.4-4.6,72.5,2.8,76.1,3.5C237.1,101.2,227.9,77.5,212.6,58.9L212.6,58.9
		L212.6,58.9z"/>
</g>
</svg>
