<?xml version="1.0" encoding="UTF-8" standalone="no"?>
<!DOCTYPE svg PUBLIC "-//W3C//DTD SVG 1.1//EN" "http://www.w3.org/Graphics/SVG/1.1/DTD/svg11.dtd">
<svg width="100%" height="100%" viewBox="0 0 131 104" version="1.1" xmlns="http://www.w3.org/2000/svg" xmlns:xlink="http://www.w3.org/1999/xlink" xml:space="preserve" style="fill-rule:evenodd;clip-rule:evenodd;stroke-linejoin:round;stroke-miterlimit:1.41421;">
    <g id="Shape" transform="matrix(1,0,0,1,-31,-44)">
        <path d="M46.534,65.216C46.697,63.608 46.084,62.018 44.883,60.936L32.651,46.201L32.651,44L70.63,44L99.986,108.381L125.795,44L162,44L162,46.201L151.542,56.228C150.64,56.915 150.193,58.045 150.38,59.163L150.38,132.837C150.193,133.955 150.64,135.085 151.542,135.772L161.755,145.799L161.755,148L110.383,148L110.383,145.799L120.963,135.527C122.003,134.488 122.003,134.182 122.003,132.593L122.003,73.042L92.586,147.755L88.611,147.755L54.362,73.042L54.362,123.116C54.077,125.221 54.776,127.341 56.258,128.863L70.019,145.554L70.019,147.755L31,147.755L31,145.554L44.761,128.863C46.232,127.338 46.89,125.204 46.534,123.116L46.534,65.216Z" style="fill-rule:nonzero;"/>
    </g>
</svg>
