<?xml version="1.0" encoding="UTF-8" standalone="no"?>
<!DOCTYPE svg PUBLIC "-//W3C//DTD SVG 1.1//EN" "http://www.w3.org/Graphics/SVG/1.1/DTD/svg11.dtd">
<svg width="100%" height="100%" viewBox="0 0 251 204" version="1.1" xmlns="http://www.w3.org/2000/svg" xmlns:xlink="http://www.w3.org/1999/xlink" xml:space="preserve" style="fill-rule:evenodd;clip-rule:evenodd;stroke-linejoin:round;stroke-miterlimit:1.41421;">
    <g transform="matrix(1,0,0,1,-2.5,-26.1)">
        <path d="M253.3,50.3C243.9,54.5 234,57.2 223.8,58.4C234.4,52 242.6,42 246.4,29.9C236.3,35.9 225.3,40.1 213.7,42.4C204,32 190.4,26.1 176.2,26.1C147.8,26.1 124.8,49.1 124.8,77.5C124.8,81.5 125.3,85.5 126.1,89.2C83.4,87.1 45.5,66.6 20.1,35.5C15.7,43.1 13.1,51.9 13.1,61.4C13.1,79.2 22.2,95 36,104.2C27.8,103.9 19.8,101.7 12.7,97.8L12.7,98.5C12.7,123.4 30.4,144.2 53.9,148.9C46.3,151 38.4,151.3 30.7,149.8C37.2,170.2 56.2,185.1 78.7,185.5C61.1,199.3 38.9,207.5 14.8,207.5C10.7,207.5 6.6,207.3 2.5,206.8C25.3,221.4 52.3,229.9 81.3,229.9C175.9,229.9 227.6,151.5 227.6,83.6C227.6,81.4 227.6,79.2 227.4,76.9C237.7,69.6 246.4,60.6 253.3,50.3Z" style="fill-rule:nonzero;"/>
    </g>
</svg>
